<?xml version="1.0" encoding="UTF-8" standalone="no"?>
<svg xmlns="http://www.w3.org/2000/svg" width="27" height="15" viewBox="0 0 27 15" fill="none">
<path d="M24.5546 5.50139H23.9771V2.60954H20.9439V0H16.8691V5.50139H9.18167L9.18352 0H5.1082V2.60954H2.07555V5.50139H1.49751C0.671653 5.50139 0 6.16152 0 6.97258V8.02748C0 8.83853 0.671653 9.49866 1.49751 9.49866H2.07555V12.385L5.10825 12.3902V15H9.17844L9.18029 9.4986H16.8691V15H20.9438V12.391H23.977V9.4986H24.5546C25.3804 9.4986 26.0526 8.83848 26.0526 8.02742V6.97252C26.0526 6.16152 25.3804 5.50139 24.5546 5.50139ZM2.07555 8.4752H1.49751C1.24615 8.4752 1.04209 8.27433 1.04209 8.02748V6.97258C1.04209 6.72572 1.24615 6.52485 1.49751 6.52485H2.07555V8.4752ZM5.10825 11.3666L3.11769 11.3636V9.4986V5.50139V3.63295H5.10825V11.3666ZM8.13889 7.50003L8.13535 9.49866H8.1381L8.13635 13.9766H6.15034V12.392V2.60954V1.02346H8.14143L8.13889 7.50003ZM16.8691 8.4752H9.18066L9.18098 7.50003L9.18252 6.52485H16.8691V8.4752ZM19.9018 2.60954V12.391V13.9766H17.9112V9.49871V5.5015V1.02356H19.9018V2.60954ZM22.9349 5.50139V9.4986V11.3676H20.9438V3.63295H22.9349V5.50139ZM25.0105 8.02748C25.0105 8.27433 24.806 8.4752 24.5546 8.4752H23.9771V6.5248H24.5546C24.806 6.5248 25.0105 6.72566 25.0105 6.97252V8.02748Z" fill="#FD5D2C"/>
</svg>